# xmcd CD database file
#
# Track frame offsets:
#	183
#	26423
#	40048
#	61395
#	74990
#	93980
#	116423
#	132120
#
# Disc length: 2032 seconds
#
# Revision: 4
# Processed by: cddbd v1.5.2PL0 Copyright (c) Steve Scherf et al.
# Submitted via: CDex 1.70beta2
#
DISCID=6a07ee08
DTITLE=Stan Getz - Big Band Bossa Nova
DYEAR=1962
DGENRE=Jazz
TTITLE0=Manha De Carnival (Morning Of The Carnival)
TTITLE1=Balanco No Samba (Street Dance)
TTITLE2=Melancolico (Melancholy)
TTITLE3=Entre Amigos (Sympathy Between Friends)
TTITLE4=Chega De Saudade (No More Blues)
TTITLE5=Noite Triste' (Night Sadness)
TTITLE6=Samba De Uma Nota So (One Note Samba)
TTITLE7=Bim Bom
EXTD=YEAR: 1962
EXTT0=
EXTT1=
EXTT2=
EXTT3=
EXTT4=
EXTT5=
EXTT6=
EXTT7=
PLAYORDER=
